<svg width="28" height="18" viewBox="0 0 28 18" fill="none" xmlns="http://www.w3.org/2000/svg">
<path d="M6.24677 6.94215H8.1378L7.18261 4.33478L6.24677 6.94215Z" fill="white"/>
<path d="M13.6862 6.94215H15.5772L14.622 4.33478L13.6862 6.94215Z" fill="white"/>
<path d="M27.6778 2.80014L25.4106 0.386207C25.1785 0.139335 24.8569 -0.000671387 24.5208 -0.000671387H3.47857C3.14239 -0.000671387 2.82088 0.139335 2.58875 0.386207L0.322176 2.80014C0.115397 3.01996 0 3.31282 0 3.61651V6.48157V16.7075C0 17.421 0.570312 17.9993 1.27403 17.9993H2.05979C2.76351 17.9993 3.33449 17.421 3.33449 16.7068V14.9679C3.33449 14.7893 3.39786 14.6168 3.51259 14.4816L4.6839 13.1045C4.84332 12.9172 5.07545 12.8089 5.31958 12.8089H22.6798C22.9239 12.8089 23.156 12.9165 23.3154 13.1045L24.4867 14.4816C24.6015 14.6168 24.6648 14.7893 24.6648 14.9679V16.7068C24.6648 17.4204 25.2352 17.9993 25.9389 17.9993H26.7246C27.4284 17.9993 27.9987 17.421 27.9987 16.7075V6.48225V3.61651C27.9987 3.31282 27.8833 3.01996 27.6765 2.80014H27.6778ZM9.1917 9.7227L8.5867 8.12648H5.81652L5.2442 9.7227H3.76006L6.45954 2.6953H7.93901L10.7139 9.7227H9.1917ZM16.6311 9.7227L16.0261 8.12648H13.2559L12.6836 9.7227H11.1995L13.8989 2.6953H15.3784L18.1533 9.7227H16.6311ZM23.9091 8.8069C23.6883 9.15861 23.3761 9.41969 22.9732 9.59081C22.5697 9.76193 22.0674 9.84715 21.4651 9.84715C20.5886 9.84715 19.9162 9.64153 19.4466 9.23098C18.9771 8.82043 18.6962 8.22185 18.6049 7.43592L19.9663 7.302C20.0483 7.76531 20.2144 8.10552 20.4652 8.32331C20.716 8.54042 21.0535 8.64931 21.4791 8.64931C21.93 8.64931 22.2695 8.55259 22.4977 8.35915C22.7264 8.16571 22.8405 7.93981 22.8405 7.68076C22.8405 7.51438 22.7925 7.37302 22.6964 7.25668C22.6004 7.14035 22.4323 7.03822 22.1928 6.95232C22.0287 6.89483 21.6552 6.7927 21.0722 6.64525C20.3218 6.45655 19.7955 6.22523 19.4933 5.94995C19.0678 5.56308 18.855 5.09165 18.855 4.53568C18.855 4.17789 18.955 3.84309 19.1552 3.53129C19.3553 3.21948 19.6434 2.98276 20.0203 2.81975C20.3972 2.65675 20.8514 2.57559 21.3844 2.57559C22.2542 2.57559 22.9092 2.76903 23.3488 3.15591C23.7884 3.54278 24.0192 4.05885 24.0412 4.7041L22.6417 4.76632C22.5817 4.40515 22.4536 4.14542 22.2562 3.98715C22.0594 3.82889 21.7639 3.74975 21.3697 3.74975C20.9755 3.74975 20.6446 3.8343 20.4145 4.00406C20.2664 4.11296 20.1924 4.25838 20.1924 4.44032C20.1924 4.6067 20.2618 4.74874 20.4005 4.8671C20.5773 5.01725 21.0055 5.17417 21.6865 5.33717C22.3676 5.50017 22.8712 5.66859 23.1967 5.84309C23.5229 6.01759 23.7784 6.25567 23.9625 6.55733C24.1466 6.85966 24.2393 7.23234 24.2393 7.6767C24.2393 8.07914 24.1292 8.45655 23.9084 8.80826L23.9091 8.8069Z" fill="white"/>
</svg>
