<svg width="176" height="111" viewBox="0 0 176 111" fill="none" xmlns="http://www.w3.org/2000/svg">
<g clip-path="url(#clip0_257_53)">
<path d="M39.172 42.8101H51.0303L45.0405 26.7313L39.172 42.8101Z" fill="#0FA968"/>
<path d="M85.8229 42.8101H97.6812L91.6914 26.7313L85.8229 42.8101Z" fill="#0FA968"/>
<path d="M173.562 17.2676L159.344 2.38169C157.889 0.859316 155.872 -0.00405884 153.764 -0.00405884H21.8134C19.7052 -0.00405884 17.6891 0.859316 16.2335 2.38169L2.0203 17.2676C0.723626 18.6232 0 20.4291 0 22.3019V39.9698V103.03C0 107.43 3.5763 110.996 7.98917 110.996H12.9165C17.3294 110.996 20.9099 107.43 20.9099 103.025V92.302C20.9099 91.2009 21.3072 90.1373 22.0267 89.3031L29.3717 80.8112C30.3714 79.6558 31.827 78.9885 33.3579 78.9885H142.22C143.751 78.9885 145.206 79.6517 146.206 80.8112L153.551 89.3031C154.27 90.1373 154.668 91.2009 154.668 92.302V103.025C154.668 107.426 158.244 110.996 162.657 110.996H167.584C171.997 110.996 175.573 107.43 175.573 103.03V39.974V22.3019C175.573 20.4291 174.85 18.6232 173.553 17.2676H173.562ZM57.6391 59.9567L53.8453 50.1134H36.4741L32.8853 59.9567H23.5785L40.5063 16.6211H49.7838L67.1843 59.9567H57.6391ZM104.29 59.9567L100.496 50.1134H83.125L79.5361 59.9567H70.2294L87.1572 16.6211H96.4347L113.835 59.9567H104.29ZM149.929 54.3093C148.544 56.4782 146.587 58.0881 144.06 59.1434C141.53 60.1986 138.38 60.7242 134.603 60.7242C129.107 60.7242 124.89 59.4562 121.946 56.9245C119.001 54.3927 117.24 50.7015 116.667 45.8549L125.204 45.0291C125.719 47.8861 126.76 49.9841 128.333 51.3271C129.906 52.666 132.022 53.3375 134.691 53.3375C137.518 53.3375 139.647 52.7411 141.078 51.5482C142.513 50.3553 143.228 48.9622 143.228 47.3648C143.228 46.3387 142.927 45.467 142.324 44.7496C141.722 44.0322 140.668 43.4024 139.166 42.8727C138.137 42.5182 135.795 41.8884 132.139 40.9791C127.433 39.8155 124.133 38.389 122.238 36.6915C119.57 34.3057 118.236 31.3986 118.236 27.9701C118.236 25.7637 118.863 23.6991 120.118 21.7763C121.373 19.8536 123.18 18.3938 125.543 17.3886C127.906 16.3834 130.755 15.8829 134.097 15.8829C139.551 15.8829 143.659 17.0758 146.415 19.4615C149.172 21.8473 150.619 25.0296 150.757 29.0087L141.981 29.3924C141.605 27.1651 140.802 25.5635 139.564 24.5875C138.33 23.6115 136.477 23.1235 134.005 23.1235C131.533 23.1235 129.458 23.6449 128.015 24.6918C127.086 25.3633 126.622 26.2601 126.622 27.382C126.622 28.4081 127.057 29.284 127.927 30.0139C129.036 30.9398 131.721 31.9075 135.992 32.9126C140.262 33.9178 143.42 34.9564 145.461 36.0325C147.507 37.1086 149.109 38.5767 150.263 40.4369C151.418 42.3013 151.999 44.5995 151.999 47.3398C151.999 49.8214 151.309 52.1488 149.924 54.3177L149.929 54.3093Z" fill="#0FA968"/>
</g>
<defs>
<clipPath id="clip0_257_53">
<rect width="175.582" height="111" fill="white"/>
</clipPath>
</defs>
</svg>
