<svg width="371" height="274" viewBox="0 0 371 274" fill="none" xmlns="http://www.w3.org/2000/svg">
<g clip-path="url(#clip0_271_331)">
<path d="M123.6 266.198C112.275 266.198 100.967 266.023 89.6761 265.671C73.5425 265.168 56.8595 264.648 41.3533 257.184C30.506 251.964 20.8991 243.588 13.5713 232.962C8.73703 225.896 5.1368 218.063 2.92373 209.795C1.84111 205.817 1.05549 201.765 0.573339 197.671C-0.747056 186.611 0.188531 175.399 3.32365 164.711C4.84615 159.596 6.92064 154.662 9.51055 149.995C20.8186 129.674 41.4437 116.032 66.0975 112.569C66.3014 112.546 66.5069 112.543 66.7115 112.558C66.8224 112.563 66.9329 112.569 67.0456 112.564L67.1907 112.524C67.5645 112.412 67.9462 112.327 68.3326 112.27C106.355 107.358 146.551 117.297 184.571 141.013C213.967 159.352 252.927 169.228 303.675 171.204L304.395 171.236C318.522 171.941 332.187 176.995 343.915 185.854C355.374 194.442 364.102 206.158 369.048 219.591C369.647 221.216 370.195 222.907 370.678 224.617C371.594 227.853 370.533 231.122 367.765 233.61V233.614L367.639 233.726C367.335 233.989 367.015 234.241 366.687 234.475L366.302 234.75C363.059 237.069 360.498 238.9 357.432 240.323C355.363 241.273 353.192 241.985 350.961 242.443C338.594 245.06 326.036 247.485 313.634 249.654C289.549 253.868 264.83 257.345 240.163 259.986C201.447 264.127 162.537 266.2 123.6 266.198ZM66.4232 113.278C66.3475 113.277 66.2719 113.281 66.1968 113.291C41.7735 116.722 21.3436 130.229 10.1477 150.35C7.58337 154.97 5.52941 159.855 4.02204 164.919C0.915334 175.512 -0.0115325 186.625 1.29736 197.586C1.77528 201.644 2.55399 205.66 3.6271 209.603C5.81851 217.792 9.38384 225.551 14.1715 232.548C21.4275 243.071 30.9362 251.362 41.6697 256.528C57.0368 263.925 73.6411 264.442 89.6989 264.942C139.899 266.5 190.146 264.602 240.085 259.262C264.736 256.622 289.44 253.148 313.508 248.936C325.902 246.769 338.451 244.345 350.81 241.73C352.987 241.283 355.106 240.589 357.125 239.662C360.129 238.268 362.666 236.454 365.878 234.158L366.263 233.883C366.544 233.681 366.82 233.466 367.085 233.242L367.161 233.173C369.8 230.864 370.827 227.818 369.977 224.816C369.499 223.123 368.956 221.45 368.364 219.841C358.421 192.617 332.7 173.377 304.36 171.964L303.644 171.931C280.463 171.029 260.178 168.528 241.632 164.286C219.492 159.223 200.165 151.6 184.184 141.631C146.31 118.006 106.282 108.104 68.4255 112.993C68.0734 113.045 67.7258 113.123 67.3852 113.227L67.1237 113.29C66.9732 113.298 66.8254 113.292 66.6781 113.285C66.5907 113.282 66.506 113.278 66.4232 113.278Z" fill="#DAFEEF"/>
<path d="M367.401 233.447V233.451C367.106 233.706 366.796 233.95 366.475 234.179C361.124 238.007 357.468 240.692 350.885 242.087C338.492 244.709 326.054 247.112 313.571 249.295C289.219 253.556 264.737 256.999 240.124 259.624C190.17 264.976 139.904 266.875 89.6877 265.306C72.9644 264.785 56.8353 264.232 41.5116 256.856C30.3105 251.465 20.8991 242.946 13.8716 232.755C6.74557 222.422 2.41167 210.194 0.935425 197.628C4.40527 196.115 8.09164 195.156 11.8595 194.787C24.9378 193.542 37.8083 198.328 49.702 203.897C61.5993 209.462 73.2815 215.967 86.163 218.535C105.146 222.32 124.742 217.173 142.941 210.584C161.141 203.995 179.056 195.858 198.251 193.371C223.995 190.031 249.827 197.1 274.825 204.101C301.452 211.557 328.08 219.014 354.709 226.472C358.514 227.535 362.462 228.676 365.429 231.283C366.164 231.929 366.826 232.655 367.401 233.447Z" fill="#E6E6E6"/>
<path d="M367.401 233.447V233.451C367.106 233.706 366.796 233.95 366.475 234.179C363.122 236.576 360.435 238.528 357.279 239.992C346.427 241.059 335.562 241.983 324.681 242.764C296.677 244.771 268.617 245.838 240.503 245.966C183.47 246.257 123.506 248.042 73.5695 220.36C56.9535 211.149 32.8839 230.038 16.4231 219.938C11.6783 217.017 7.26925 213.583 3.27553 209.699C2.19692 205.739 1.41472 201.704 0.935419 197.628C-0.385967 186.618 0.545342 175.454 3.67282 164.815C5.18592 159.725 7.25027 154.815 9.82924 150.173C17.4765 152.915 24.8102 156.864 31.7904 161.045C44.5917 168.705 57.0394 177.403 71.295 181.788C92.3084 188.253 115.042 184.698 136.366 179.351C157.689 174.004 178.87 166.88 200.846 166.279C230.319 165.474 258.688 176.441 286.124 187.233C313.648 198.062 341.175 208.889 368.706 219.715C369.311 221.358 369.851 223.025 370.328 224.716C371.301 228.155 369.89 231.269 367.401 233.447Z" fill="#F2F2F2"/>
<path d="M99.0434 93.6173C94.8981 90.8248 95.3036 84.7149 99.6874 82.3135C99.7766 82.2646 99.864 82.2141 99.9498 82.1619C100.169 81.1105 100.389 80.0591 100.609 79.0077C101.902 80.3499 104.445 80.0966 105.448 78.5257C101.952 71.0744 97.3549 64.1905 91.811 58.1049C90.6025 56.7718 89.9245 55.0425 89.905 53.2439C89.8854 51.4452 90.5258 49.7017 91.7051 48.3428C91.7263 48.3181 91.7473 48.2932 91.7682 48.2682C94.8987 47.2116 97.8631 45.7158 100.572 43.8256C91.2813 28.9089 73.5645 17.0586 69.3534 -1.52588e-05C56.6846 13.5948 55.2624 18.3828 42.5935 31.9776C42.5935 31.9776 30.5976 42.7942 28.0084 48.6073C28.6445 49.2751 34.3403 50.8775 34.5592 52.1905C38.9029 52.5385 46.4281 47.7809 46.4281 47.7809C46.4281 47.7809 30.0031 65.2789 25.0162 76.0569C24.5672 77.0275 24.1407 78.1357 24.5169 79.1367C24.8172 79.9359 25.8947 80.3967 26.5887 80.0792C25.7597 80.8781 25.0941 81.8305 24.6289 82.8834C26.076 83.8067 27.7924 84.2155 29.5007 84.0436C31.2091 83.8716 32.8094 83.1291 34.0432 81.9359C33.3486 83.2326 32.654 84.5294 31.9594 85.8261L31.9607 85.8291C32.8991 86.1355 33.7412 86.6813 34.4039 87.4125C35.0666 88.1437 35.5269 89.035 35.7393 89.9984C35.9518 90.9618 35.909 91.9639 35.6152 92.9056C35.3215 93.8475 34.7869 94.6964 34.0643 95.3685C29.754 99.3743 25.8155 103.585 24.3723 106.358C23.0147 108.966 36.9546 112.111 40.09 111.982C43.2255 111.853 46.1562 110.476 48.9881 109.125C48.85 110.415 49.097 111.718 49.6979 112.868C51.2488 113.244 52.8592 113.307 54.4346 113.052C56.0101 112.798 57.5187 112.231 58.872 111.386C58.747 113.966 62.0045 115.391 64.2655 114.661C63.1367 132.504 63.9624 157.561 65.0468 183.573H67.7374V115.689C68.4533 116.052 69.2191 116.306 70.0098 116.444C75.5145 117.421 82.1573 118.014 85.7392 113.725C89.8618 117.879 97.4166 117.8 101.515 113.661C101.112 114.375 101.729 115.577 102.643 115.766C103.719 115.989 104.766 115.35 105.68 114.739C109.817 111.976 113.954 109.212 118.091 106.448C112.986 103.009 105.734 98.1241 99.0434 93.6173Z" fill="#E6E6E6"/>
<path d="M223.229 85.3132C230.403 85.3132 236.219 79.5013 236.219 72.332C236.219 65.1626 230.403 59.3508 223.229 59.3508C216.054 59.3508 210.238 65.1626 210.238 72.332C210.238 79.5013 216.054 85.3132 223.229 85.3132Z" fill="#A91051"/>
<path d="M252.305 66.1859C251.554 63.6709 249.431 62.0291 246.866 61.6689C246.838 61.665 246.811 61.6702 246.783 61.6684C246.747 61.6573 246.71 61.6488 246.672 61.6429C243.039 61.2004 239.362 62.0001 236.242 63.9116C233.235 65.7875 229.731 66.6359 226.189 66.7737C226.168 66.7745 226.148 66.7754 226.127 66.7764C224.81 66.8641 223.553 67.3551 222.525 68.1825C221.498 69.01 220.751 70.1336 220.385 71.4006C220.346 71.5557 220.358 71.7191 220.418 71.8672C220.479 72.0153 220.585 72.1403 220.721 72.2242C221.113 72.5565 221.578 72.7922 222.078 72.9126C223.157 73.141 224.24 73.3502 225.326 73.5403C227.447 73.9111 229.578 74.2108 231.72 74.4396C236.069 74.9053 240.445 75.0706 244.817 74.9343C246.273 74.8889 247.677 74.8406 249.011 74.1985C249.982 73.7195 250.811 72.9964 251.417 72.1004C251.988 71.2392 252.364 70.2633 252.517 69.2415C252.671 68.2197 252.598 67.1767 252.305 66.1859Z" fill="#E6E6E6"/>
<path d="M225.305 83.4941C224.553 80.9792 222.43 79.3374 219.866 78.9772C219.837 78.9733 219.811 78.9785 219.782 78.9767C219.746 78.9656 219.709 78.9571 219.672 78.9512C216.038 78.5087 212.362 79.3083 209.241 81.22C206.234 83.0957 202.731 83.9443 199.189 84.0819C199.168 84.0828 199.147 84.0837 199.126 84.0847C197.81 84.1724 196.552 84.6634 195.525 85.4908C194.497 86.3182 193.75 87.4419 193.385 88.7089C193.346 88.864 193.358 89.0274 193.418 89.1755C193.478 89.3236 193.584 89.4486 193.72 89.5325C194.113 89.8647 194.578 90.1005 195.078 90.2209C196.156 90.4493 197.239 90.6585 198.326 90.8486C200.446 91.2193 202.577 91.5191 204.72 91.7479C209.069 92.2136 213.445 92.3789 217.816 92.2425C219.272 92.1972 220.676 92.1489 222.011 91.5067C222.981 91.0277 223.81 90.3047 224.417 89.4087C224.988 88.5474 225.363 87.5716 225.517 86.5498C225.67 85.528 225.598 84.485 225.305 83.4941Z" fill="#E6E6E6"/>
<path d="M335.24 137.689C331.095 134.897 331.5 128.787 335.884 126.385C335.973 126.337 336.061 126.286 336.146 126.234C336.366 125.183 336.586 124.131 336.805 123.08C338.099 124.422 340.642 124.169 341.644 122.598C338.148 115.146 333.551 108.263 328.008 102.177C326.799 100.844 326.121 99.1146 326.101 97.3159C326.082 95.5173 326.722 93.7738 327.902 92.4148C327.923 92.3901 327.944 92.3652 327.965 92.3402C331.095 91.2837 334.06 89.7878 336.769 87.8976C327.478 72.9809 309.761 61.1306 305.55 44.072C292.881 57.6668 291.459 62.4548 278.79 76.0496C278.79 76.0496 266.794 86.8663 264.205 92.6793C264.841 93.3471 270.537 94.9496 270.756 96.2625C275.099 96.6105 282.625 91.853 282.625 91.853C282.625 91.853 266.2 109.351 261.213 120.129C260.764 121.1 260.337 122.208 260.713 123.209C261.014 124.008 262.091 124.469 262.785 124.151C261.956 124.95 261.291 125.903 260.825 126.955C262.272 127.879 263.989 128.288 265.697 128.116C267.406 127.944 269.006 127.201 270.24 126.008C269.545 127.305 268.851 128.601 268.156 129.898L268.157 129.901C269.096 130.208 269.938 130.753 270.6 131.485C271.263 132.216 271.723 133.107 271.936 134.07C272.148 135.034 272.106 136.036 271.812 136.978C271.518 137.919 270.983 138.768 270.261 139.441C265.951 143.446 262.012 147.657 260.569 150.43C259.211 153.038 273.151 156.183 276.287 156.054C279.422 155.925 282.353 154.548 285.185 153.197C285.047 154.487 285.294 155.79 285.894 156.94C287.445 157.316 289.056 157.379 290.631 157.124C292.207 156.87 293.715 156.303 295.068 155.458C294.944 158.039 298.201 159.463 300.462 158.733C299.333 176.576 300.159 201.633 301.243 227.645H303.934V159.761C304.65 160.124 305.416 160.378 306.206 160.516C311.711 161.493 318.354 162.086 321.936 157.797C326.058 161.951 333.613 161.872 337.712 157.733C337.309 158.447 337.926 159.649 338.839 159.838C339.916 160.061 340.963 159.422 341.877 158.811C346.014 156.048 350.151 153.284 354.287 150.52C349.182 147.081 341.93 142.196 335.24 137.689Z" fill="#E6E6E6"/>
<path d="M22.9527 206.89C23.2225 206.902 23.4895 206.832 23.7177 206.687C23.9458 206.543 24.1241 206.332 24.2283 206.083C24.3324 205.834 24.3575 205.559 24.3001 205.295C24.2427 205.032 24.1055 204.792 23.9072 204.609C23.874 204.477 23.8502 204.382 23.817 204.25C23.8289 204.222 23.8408 204.193 23.8528 204.164C24.1246 203.523 24.58 202.976 25.1618 202.592C25.7436 202.209 26.4258 202.005 27.1229 202.008C27.82 202.011 28.5007 202.219 29.0796 202.607C29.6586 202.995 30.1099 203.545 30.3768 204.189C31.4439 206.757 32.8024 209.329 33.1369 212.044C33.2842 213.244 33.2221 214.461 32.9532 215.64C35.4594 210.177 36.7608 204.24 36.7692 198.23C36.7697 196.722 36.6859 195.215 36.518 193.717C36.3793 192.488 36.1869 191.268 35.9407 190.057C34.5975 183.486 31.7135 177.327 27.5255 172.085C25.4986 170.98 23.8593 169.281 22.8287 167.216C22.4554 166.474 22.1915 165.681 22.0453 164.864C22.2739 164.894 22.5063 164.912 22.735 164.927C22.8062 164.931 22.8812 164.935 22.9524 164.939L22.9793 164.94C23.2306 164.951 23.4798 164.889 23.6969 164.763C23.914 164.636 24.0897 164.449 24.203 164.224C24.3162 164 24.3621 163.747 24.3351 163.497C24.3081 163.247 24.2095 163.011 24.0509 162.815C23.9522 162.694 23.8534 162.573 23.7546 162.451C23.6046 162.264 23.451 162.081 23.301 161.893C23.2837 161.876 23.2674 161.857 23.2523 161.837C23.0798 161.624 22.9074 161.414 22.735 161.2C23.0497 160.712 23.4731 160.303 23.972 160.006C25.7 158.994 28.084 159.695 29.3323 161.257C30.5843 162.819 30.8204 165.01 30.3856 166.961C29.958 168.622 29.2507 170.197 28.2939 171.621C28.3877 171.741 28.4851 171.857 28.5788 171.977C30.2919 174.178 31.7849 176.541 33.0366 179.034C32.7322 176.242 33.0955 173.417 34.0965 170.793C35.1111 168.347 37.0128 166.288 38.6874 164.173C40.699 161.634 44.8238 162.742 45.1781 165.961C45.1816 165.992 45.1849 166.024 45.1882 166.055C44.9394 166.195 44.696 166.344 44.4577 166.501C44.1584 166.701 43.9265 166.987 43.7924 167.32C43.6583 167.654 43.6282 168.021 43.706 168.372C43.7839 168.723 43.9661 169.042 44.2287 169.288C44.4914 169.534 44.8223 169.695 45.178 169.75L45.2144 169.755C45.1258 170.651 44.9692 171.539 44.7459 172.411C44.0988 174.846 42.9554 177.121 41.3873 179.093C39.8193 181.065 37.8603 182.693 35.6334 183.873C35.4872 183.948 35.3447 184.023 35.1985 184.094C35.8694 185.983 36.4055 187.917 36.8029 189.881C37.1584 191.613 37.4063 193.366 37.5451 195.129C37.715 197.35 37.705 199.581 37.5151 201.8L37.5263 201.721C38.0062 199.253 39.3236 197.027 41.256 195.417C44.1263 193.061 48.1813 192.194 51.2778 190.3C51.6069 190.089 51.9895 189.976 52.3806 189.975C52.7716 189.974 53.1548 190.085 53.4849 190.294C53.815 190.504 54.0783 190.803 54.2437 191.157C54.409 191.512 54.4696 191.906 54.4182 192.293C54.4141 192.321 54.4099 192.348 54.4056 192.376C53.944 192.564 53.4945 192.78 53.0599 193.024C52.8111 193.164 52.5677 193.313 52.3294 193.47C52.0301 193.67 51.7982 193.955 51.6641 194.289C51.53 194.623 51.4999 194.989 51.5777 195.341C51.6556 195.692 51.8378 196.011 52.1004 196.257C52.3631 196.503 52.6939 196.664 53.0497 196.719L53.0861 196.724C53.1124 196.728 53.1349 196.732 53.1611 196.736C52.3724 198.617 51.2654 200.349 49.8887 201.856C48.188 203.68 46.1324 205.137 43.8481 206.138C41.5637 207.14 39.0987 207.665 36.6042 207.68H36.6004C35.9233 210.621 34.9422 213.483 33.6729 216.221H23.2148C23.1773 216.105 23.1435 215.985 23.1098 215.869C24.0778 215.929 25.0497 215.871 26.0036 215.696C25.2277 214.745 24.4518 213.786 23.6758 212.835C23.6585 212.817 23.6423 212.798 23.6271 212.778C23.2335 212.291 22.8362 211.808 22.4426 211.321L22.4424 211.321C22.4214 209.828 22.5928 208.339 22.9524 206.89L22.9527 206.89Z" fill="#E6E6E6"/>
<path d="M334.601 217.088C334.871 217.101 335.138 217.03 335.366 216.886C335.594 216.741 335.772 216.53 335.876 216.281C335.981 216.033 336.006 215.758 335.948 215.494C335.891 215.23 335.754 214.991 335.555 214.807C335.522 214.675 335.498 214.581 335.465 214.449C335.477 214.42 335.489 214.391 335.501 214.363C335.773 213.721 336.228 213.175 336.81 212.791C337.392 212.407 338.074 212.204 338.771 212.207C339.468 212.209 340.149 212.417 340.728 212.805C341.307 213.193 341.758 213.744 342.025 214.387C343.092 216.955 344.45 219.527 344.785 222.243C344.932 223.443 344.87 224.66 344.601 225.839C347.107 220.376 348.409 214.438 348.417 208.429C348.418 206.921 348.334 205.414 348.166 203.915C348.027 202.686 347.835 201.467 347.589 200.256C346.246 193.684 343.362 187.525 339.174 182.284C337.147 181.179 335.507 179.479 334.477 177.414C334.103 176.672 333.84 175.88 333.693 175.062C333.922 175.092 334.154 175.111 334.383 175.126C334.454 175.13 334.529 175.133 334.6 175.137L334.627 175.138C334.879 175.15 335.128 175.088 335.345 174.961C335.562 174.834 335.738 174.647 335.851 174.423C335.964 174.198 336.01 173.946 335.983 173.696C335.956 173.446 335.858 173.209 335.699 173.014C335.6 172.893 335.502 172.771 335.403 172.65C335.253 172.463 335.099 172.279 334.949 172.092C334.932 172.074 334.916 172.055 334.9 172.036C334.728 171.822 334.556 171.612 334.383 171.399C334.698 170.911 335.121 170.502 335.62 170.204C337.348 169.193 339.732 169.893 340.98 171.455C342.232 173.017 342.468 175.208 342.034 177.16C341.606 178.82 340.899 180.396 339.942 181.819C340.036 181.939 340.133 182.055 340.227 182.175C341.94 184.376 343.433 186.74 344.685 189.232C344.38 186.44 344.744 183.616 345.745 180.992C346.759 178.546 348.661 176.486 350.336 174.372C352.347 171.832 356.472 172.94 356.826 176.16C356.83 176.191 356.833 176.222 356.836 176.253C356.588 176.393 356.344 176.542 356.106 176.7C355.807 176.9 355.575 177.185 355.44 177.519C355.306 177.853 355.276 178.219 355.354 178.57C355.432 178.921 355.614 179.241 355.877 179.487C356.139 179.733 356.47 179.894 356.826 179.948L356.862 179.954C356.774 180.85 356.617 181.738 356.394 182.61C355.747 185.044 354.603 187.319 353.035 189.291C351.467 191.264 349.508 192.891 347.281 194.071C347.135 194.146 346.993 194.221 346.847 194.292C348.104 197.854 348.893 201.563 349.193 205.327C349.363 207.548 349.353 209.779 349.163 211.998L349.174 211.92C349.654 209.452 350.972 207.225 352.904 205.616C355.774 203.26 359.829 202.392 362.926 200.498C363.255 200.287 363.638 200.174 364.029 200.173C364.42 200.172 364.803 200.283 365.133 200.493C365.463 200.702 365.726 201.002 365.892 201.356C366.057 201.71 366.118 202.104 366.066 202.491C366.062 202.519 366.058 202.547 366.054 202.574C365.592 202.762 365.143 202.978 364.708 203.222C364.459 203.362 364.216 203.511 363.978 203.669C363.678 203.868 363.446 204.154 363.312 204.488C363.178 204.821 363.148 205.188 363.226 205.539C363.304 205.89 363.486 206.21 363.749 206.456C364.011 206.702 364.342 206.862 364.698 206.917L364.734 206.923C364.76 206.927 364.783 206.93 364.809 206.934C364.02 208.816 362.914 210.548 361.537 212.054C359.836 213.878 357.781 215.335 355.496 216.337C353.212 217.338 350.747 217.863 348.252 217.879H348.249C347.571 220.819 346.59 223.681 345.321 226.419H334.863C334.825 226.303 334.792 226.183 334.758 226.067C335.726 226.128 336.698 226.07 337.652 225.895C336.876 224.943 336.1 223.984 335.324 223.033C335.307 223.015 335.29 222.996 335.275 222.977C334.882 222.49 334.484 222.007 334.091 221.52L334.09 221.519C334.069 220.027 334.241 218.537 334.601 217.088Z" fill="#E6E6E6"/>
<path d="M210.306 186.857C210.576 186.87 210.843 186.799 211.071 186.654C211.299 186.51 211.477 186.299 211.582 186.05C211.686 185.801 211.711 185.526 211.653 185.263C211.596 184.999 211.459 184.759 211.261 184.576C211.227 184.444 211.204 184.35 211.17 184.218C211.182 184.189 211.194 184.16 211.206 184.132C211.478 183.49 211.933 182.943 212.515 182.56C213.097 182.176 213.779 181.973 214.476 181.975C215.173 181.978 215.854 182.186 216.433 182.574C217.012 182.962 217.463 183.512 217.73 184.156C218.797 186.724 220.156 189.296 220.49 192.012C220.638 193.212 220.575 194.428 220.307 195.607C222.813 190.144 224.114 184.207 224.123 178.197C224.123 176.689 224.039 175.183 223.871 173.684C223.733 172.455 223.54 171.235 223.294 170.024C221.951 163.453 219.067 157.294 214.879 152.053C212.852 150.947 211.213 149.248 210.182 147.183C209.809 146.441 209.545 145.649 209.399 144.831C209.627 144.861 209.86 144.88 210.088 144.895C210.16 144.898 210.235 144.902 210.306 144.906L210.333 144.907C210.584 144.918 210.833 144.857 211.05 144.73C211.267 144.603 211.443 144.416 211.556 144.191C211.67 143.967 211.715 143.715 211.689 143.465C211.662 143.215 211.563 142.978 211.404 142.783C211.306 142.661 211.207 142.54 211.108 142.419C210.958 142.231 210.804 142.048 210.654 141.861C210.637 141.843 210.621 141.824 210.606 141.804C210.433 141.591 210.261 141.381 210.088 141.168C210.403 140.679 210.826 140.271 211.325 139.973C213.053 138.961 215.437 139.662 216.686 141.224C217.938 142.786 218.174 144.977 217.739 146.929C217.311 148.589 216.604 150.165 215.647 151.588C215.741 151.708 215.839 151.824 215.932 151.944C217.645 154.145 219.138 156.509 220.39 159.001C220.086 156.209 220.449 153.385 221.45 150.76C222.465 148.315 224.366 146.255 226.041 144.14C228.052 141.601 232.177 142.709 232.532 145.929C232.535 145.96 232.538 145.991 232.542 146.022C232.293 146.162 232.049 146.311 231.811 146.469C231.512 146.668 231.28 146.954 231.146 147.288C231.012 147.621 230.982 147.988 231.059 148.339C231.137 148.69 231.319 149.01 231.582 149.256C231.845 149.501 232.176 149.662 232.531 149.717L232.568 149.723C232.479 150.619 232.323 151.506 232.099 152.378C231.452 154.813 230.309 157.088 228.741 159.06C227.173 161.033 225.214 162.66 222.987 163.84C222.841 163.915 222.698 163.99 222.552 164.061C223.809 167.622 224.598 171.332 224.898 175.096C225.068 177.317 225.058 179.548 224.868 181.767L224.88 181.688C225.36 179.221 226.677 176.994 228.609 175.384C231.48 173.028 235.535 172.161 238.631 170.267C238.96 170.056 239.343 169.943 239.734 169.942C240.125 169.941 240.508 170.052 240.838 170.262C241.168 170.471 241.432 170.771 241.597 171.125C241.762 171.479 241.823 171.873 241.772 172.26C241.767 172.288 241.763 172.315 241.759 172.343C241.297 172.531 240.848 172.747 240.413 172.991C240.165 173.131 239.921 173.28 239.683 173.437C239.384 173.637 239.152 173.923 239.017 174.256C238.883 174.59 238.853 174.957 238.931 175.308C239.009 175.659 239.191 175.978 239.454 176.224C239.716 176.47 240.047 176.631 240.403 176.686L240.44 176.692C240.466 176.695 240.488 176.699 240.514 176.703C239.726 178.585 238.619 180.317 237.242 181.823C235.541 183.647 233.486 185.104 231.201 186.106C228.917 187.107 226.452 187.632 223.958 187.648H223.954C223.277 190.588 222.296 193.45 221.026 196.188H210.568C210.531 196.072 210.497 195.952 210.463 195.836C211.431 195.897 212.403 195.839 213.357 195.664C212.581 194.712 211.805 193.753 211.029 192.802C211.012 192.784 210.996 192.765 210.98 192.746C210.587 192.259 210.19 191.775 209.796 191.289L209.796 191.288C209.775 189.795 209.946 188.306 210.306 186.857L210.306 186.857Z" fill="#E6E6E6"/>
<path d="M143.855 266.27L148.231 264.969L145.336 247.093L138.877 249.012L143.855 266.27Z" fill="#FFB6B6"/>
<path d="M117.015 259.214C117.281 259.446 117.548 259.675 117.818 259.904C118.355 260.363 118.899 260.816 119.443 261.263C119.717 261.487 119.994 261.712 120.269 261.933L120.267 261.942L120.285 261.947L120.29 261.951L120.732 262.138L121.669 260.498L122.101 259.743L122.712 258.674L123.831 256.717L129.721 246.416L123.516 243.802L123.117 244.752L123.114 244.752L122.917 245.223L119.212 254.009L118.455 255.805L118.431 255.86L117.977 256.933L117.584 257.862L117.147 258.901L117.015 259.214Z" fill="#FFB6B6"/>
<path d="M84.5925 214.632C84.8978 215.354 85.2125 216.074 85.5311 216.789C86.1228 218.119 86.7383 219.435 87.3775 220.736C87.377 220.739 87.38 220.739 87.3825 220.743C87.7931 221.264 88.2631 221.736 88.7831 222.149C88.8042 222.17 88.8292 222.187 88.8507 222.205C89.2345 222.504 89.6536 222.755 90.0988 222.951C90.2595 223.019 90.4232 223.088 90.5839 223.156C91.1648 223.395 91.7431 223.612 92.3207 223.814C93.3487 224.169 94.3751 224.47 95.4 224.717C95.4822 224.74 95.5649 224.759 95.6477 224.778C99.8742 225.768 104.117 225.922 108.593 225.783C110.803 225.716 113.07 225.576 115.418 225.431C116.186 225.381 116.956 225.334 117.735 225.289C117.794 225.286 117.856 225.281 117.918 225.278C119.031 225.213 120.161 225.153 121.318 225.1C122.775 225.034 124.275 224.984 125.829 224.957L125.384 227.069C125.035 228.693 124.438 230.253 123.615 231.696C122.67 233.481 121.923 234.893 122.509 238.172L122.79 239.76C122.402 240.464 122.183 241.249 122.15 242.053C122.116 242.856 122.27 243.657 122.598 244.391L122.678 244.566L116.604 254.841L116.211 255.508L118.431 255.859L121.162 256.294L125.791 257.027L134.592 244.695L135.013 244.106L135.018 244.073L138.406 218.233C138.433 218.005 138.452 217.772 138.458 217.54C138.499 216.49 138.331 215.441 137.963 214.455C137.595 213.47 137.034 212.568 136.313 211.802C135.623 211.062 134.793 210.467 133.871 210.051C132.949 209.635 131.953 209.406 130.942 209.378L128.609 209.312L123.842 209.176L120.485 209.082L120.418 209.081L110.516 208.799L110.269 205.852L110.148 205.784L106.301 203.641L92.9924 196.231L92.9584 196.213L92.083 195.725L91.9441 195.887C91.9027 195.936 91.8613 195.984 91.8229 196.033C90.6435 197.533 89.6206 199.15 88.7699 200.858C87.3532 203.643 86.0965 206.507 85.0057 209.436C84.958 209.563 84.9151 209.678 84.8772 209.783L84.863 209.814C84.846 209.863 84.8348 209.895 84.8304 209.904C84.2898 211.208 84.2547 212.898 84.5925 214.632Z" fill="#06150E"/>
<path d="M85.4991 205.055C85.5742 204.871 85.6618 204.686 85.7513 204.507C86.4516 203.158 87.2258 201.847 88.0704 200.583C89.0217 199.142 90.1311 197.612 91.4235 195.971C92.0488 195.176 92.7164 194.353 93.4265 193.5C93.7822 193.072 94.1502 192.638 94.5307 192.196C94.5461 192.175 94.5625 192.155 94.5799 192.136L94.6893 192.007L108.372 196.089L108.365 197.961L109.358 200.614L109.29 200.692C109.293 200.692 109.294 200.689 109.29 200.692V200.327L109.655 200.692L113.183 205.047L113.207 205.048L121.09 205.27L129.214 205.5L133.578 205.624C134.589 205.652 135.585 205.881 136.507 206.297C137.43 206.713 138.26 207.308 138.95 208.048C139.67 208.814 140.231 209.717 140.599 210.702C140.967 211.687 141.135 212.736 141.094 213.787C141.088 214 141.072 214.218 141.047 214.431L143.567 224.622C145.075 230.717 145.655 237.005 145.285 243.272L146.746 253.191L146.318 253.163L139.957 252.753L138.276 252.647L135.474 246.752C135.154 246.08 134.859 245.393 134.593 244.696C134.153 243.556 133.786 242.39 133.495 241.204L128.581 221.204C127.955 221.212 127.336 221.216 126.723 221.216C123.888 221.226 121.177 221.171 118.589 221.052C110.174 220.666 103.003 219.604 96.7529 217.813C94.9975 217.312 93.3127 216.751 91.6986 216.131C91.1063 215.906 90.5236 215.672 89.9505 215.429C89.8153 215.374 89.683 215.32 89.5512 215.262C88.3667 214.748 87.33 213.946 86.5361 212.928C85.7421 211.911 85.2163 210.71 85.0067 209.437C84.7497 207.959 84.9206 206.439 85.4991 205.055Z" fill="#06150E"/>
<path d="M142.995 263.289L147.731 261.878L148.473 261.656L149.147 264.536L156.577 267.447C156.944 267.591 157.256 267.848 157.466 268.181C157.677 268.515 157.776 268.906 157.747 269.3C157.719 269.693 157.566 270.067 157.31 270.367C157.054 270.667 156.709 270.877 156.325 270.967L148.317 272.843L146.27 270.319L146.399 273.293L143.383 274L141.844 263.634L142.995 263.289Z" fill="#06150E"/>
<path d="M116.604 254.842L116.21 255.508L116.491 255.552L116.604 254.842Z" fill="#2F2E41"/>
<path d="M118 255.947L122.36 258.273L123.044 258.638L121.495 261.158L124.724 268.45C124.884 268.811 124.924 269.213 124.839 269.598C124.754 269.983 124.548 270.33 124.251 270.59C123.955 270.85 123.582 271.008 123.189 271.041C122.796 271.074 122.403 270.981 122.066 270.775L115.055 266.478L115.378 263.244L113.376 265.448L110.735 263.83L116.94 255.382L118 255.947Z" fill="#06150E"/>
<path d="M149.5 123.305C149.542 123.788 149.478 124.274 149.311 124.729C149.145 125.184 148.881 125.597 148.537 125.94C148.194 126.282 147.78 126.544 147.324 126.709C146.868 126.874 146.381 126.936 145.898 126.893L141.05 137.628L137.777 132.455L142.882 123.054C143.009 122.248 143.427 121.517 144.058 120.999C144.688 120.481 145.487 120.212 146.303 120.243C147.119 120.273 147.895 120.602 148.484 121.167C149.073 121.731 149.435 122.492 149.5 123.305Z" fill="#FFB6B6"/>
<path d="M137.168 155.24L114.956 172.223C113.194 173.568 110.97 174.158 108.772 173.866C106.575 173.574 104.583 172.423 103.234 170.665C102.488 169.691 101.966 168.565 101.705 167.366C101.443 166.168 101.449 164.927 101.722 163.731C101.995 162.535 102.528 161.414 103.283 160.447C104.038 159.48 104.997 158.691 106.091 158.136L128.236 146.91L138.142 127.624L144.794 129.6L137.168 155.24Z" fill="#0FA968"/>
<path d="M89.8617 175.416L89.4113 191.895C83.2141 202.357 82.5092 207.438 84.2246 210.146L109.707 200.845L110.136 199.82L111.467 192.457L113.88 184.86C114.304 184.066 120.072 179.189 114.665 169.937L103.789 155.297L95.0749 154.798C93.6382 158.483 96.2298 160.493 93.6414 161.343C87.7881 166.704 88.6479 167.576 89.8617 175.416Z" fill="#0FA968"/>
<path d="M72.5311 221.68C72.3337 221.238 72.2359 220.757 72.2444 220.273C72.253 219.788 72.3677 219.312 72.5805 218.876C72.7934 218.441 73.0991 218.058 73.4763 217.753C73.8535 217.449 74.2929 217.231 74.7635 217.114L75.8384 205.386L80.6226 209.207L78.8684 219.759C79.0117 220.562 78.8552 221.389 78.4287 222.085C78.0021 222.78 77.335 223.295 76.5539 223.532C75.7727 223.769 74.9317 223.711 74.1903 223.37C73.4489 223.029 72.8585 222.427 72.5311 221.68Z" fill="#FFB6B6"/>
<path d="M73.7529 187.472L89.1989 164.173C90.4252 162.327 92.3341 161.043 94.5067 160.602C96.6793 160.162 98.9382 160.6 100.788 161.821C101.811 162.499 102.672 163.393 103.311 164.44C103.949 165.488 104.349 166.663 104.482 167.882C104.615 169.102 104.478 170.335 104.08 171.495C103.682 172.656 103.034 173.714 102.18 174.596L84.9177 192.432L81.8555 213.892L74.9229 214.195L73.7529 187.472Z" fill="#0FA968"/>
<path d="M106.489 134.805C109.57 140.873 107.557 147.903 101.839 151.599C95.6565 155.596 87.6289 154.721 85.0324 146.953C82.1409 138.303 84.5164 134.592 89.6817 130.159C95.7349 124.963 103.159 128.248 106.489 134.805Z" fill="#06150E"/>
<path d="M91.3212 148.323C92.8897 150.377 95.2101 151.725 97.7724 152.07C100.335 152.416 102.929 151.731 104.986 150.165C107.044 148.6 108.395 146.283 108.743 143.723C109.091 141.163 108.409 138.569 106.844 136.512L106.76 136.401C105.162 134.402 102.842 133.111 100.3 132.807C97.7578 132.502 95.198 133.208 93.1723 134.772C91.1466 136.337 89.8175 138.634 89.4717 141.169C89.1258 143.703 89.791 146.273 91.3236 148.322L91.3212 148.323Z" fill="#FFB6B6"/>
<path d="M109.475 133.822C107.889 135.329 105.957 136.424 103.848 137.008C103.425 136.519 102.924 136.104 102.365 135.78C102.633 136.336 102.816 136.929 102.909 137.539C101.969 139.49 98.127 140.892 94.4554 142.326L89.5923 133.75L96.0292 130.105C101.201 126.532 107.29 128.057 109.475 133.822Z" fill="#06150E"/>
<path d="M85.9239 130.169C85.048 129.765 83.913 130.015 83.0895 130.583C82.3059 131.178 81.6723 131.948 81.2393 132.832C80.452 134.261 79.8864 135.802 79.5617 137.401C79.2841 138.784 79.3311 140.456 80.5731 141.178C81.6095 141.781 83.0914 141.401 84.0439 140.597C84.9964 139.794 85.533 138.664 85.9977 137.56C86.4624 136.457 86.902 135.313 87.728 134.397L86.8699 134.798C87.1411 133.975 87.2675 133.111 87.2434 132.245C87.2238 131.814 87.0917 131.396 86.8602 131.032C86.6287 130.668 86.3059 130.37 85.9239 130.169Z" fill="#06150E"/>
<path d="M97.0571 131.293L90.1514 135.204C88.2841 136.261 86.9135 138.016 86.3413 140.083C85.7691 142.15 86.042 144.36 87.1001 146.226C88.6414 148.943 91.1414 150.989 94.1115 151.963C97.0816 152.937 100.308 152.769 103.161 151.493L96.8511 145.926L105.411 150.285L107.239 149.25C98.0584 147.582 96.2873 140.385 97.0571 131.293Z" fill="#06150E"/>
</g>
<defs>
<clipPath id="clip0_271_331">
<rect width="371" height="274" fill="white"/>
</clipPath>
</defs>
</svg>
